HIERARCHY
ROOT Hips
{
	OFFSET 0.000000 0.000000 0.000000
	CHANNELS 6 Xposition Yposition Zposition Zrotation Yrotation Xrotation 
	JOINT LHipJoint
	{
		OFFSET 0.000000 0.000000 0.000000
		CHANNELS 3 Zrotation Yrotation Xrotation
		JOINT LeftUpLeg
		{
			OFFSET 1.363060 -1.794630 0.839290
			CHANNELS 3 Zrotation Yrotation Xrotation
			JOINT LeftLeg
			{
				OFFSET 2.448110 -6.726130 0.000000
				CHANNELS 3 Zrotation Yrotation Xrotation
				JOINT LeftFoot
				{
					OFFSET 2.562200 -7.039590 0.000000
					CHANNELS 3 Zrotation Yrotation Xrotation
					JOINT LeftToeBase
					{
						OFFSET 0.157640 -0.433110 2.322550
						CHANNELS 3 Zrotation Yrotation Xrotation
						End Site
						{
							OFFSET 0.000000 0.000000 0.000000
						}
					}
				}
			}
		}
	}
	JOINT RHipJoint
	{
		OFFSET 0.000000 0.000000 0.000000
		CHANNELS 3 Zrotation Yrotation Xrotation
		JOINT RightUpLeg
		{
			OFFSET -1.305520 -1.794630 0.839290
			CHANNELS 3 Zrotation Yrotation Xrotation
			JOINT RightLeg
			{
				OFFSET -2.542530 -6.985550 0.000000
				CHANNELS 3 Zrotation Yrotation Xrotation
				JOINT RightFoot
				{
					OFFSET -2.568260 -7.056230 0.000000
					CHANNELS 3 Zrotation Yrotation Xrotation
					JOINT RightToeBase
					{
						OFFSET -0.164730 -0.452590 2.363150
						CHANNELS 3 Zrotation Yrotation Xrotation
						End Site
						{
							OFFSET 0.000000 0.000000 0.000000
						}
					}
				}
			}
		}
	}
}
MOTION
Frames: 25
Frame Time: 0.008333
-11.667848 16.985161 -1.453271 175.658806 81.662006 177.617271 -11.058826 5.222847 0.529963 0.660064 7.475754 11.560267 -0.529960 2.036765 23.468558 0.389929 -3.595939 15.411223 -1.463400 -0.000000 -77.802900 9.166544 -0.774792 -0.055464 12.232525 -10.649211 -26.349110 2.054150 -0.802655 19.482148 -2.289903 -11.024907 -3.537689 -1.598300 0.000000 -22.560700
-11.490889 16.991475 -1.431370 176.617311 81.546213 178.428178 -11.148267 5.257925 0.544627 1.288257 7.608154 10.922340 -0.380320 2.128650 25.242980 0.481044 -4.185337 17.269471 -1.865099 0.000000 -77.178600 9.152914 -0.841973 -0.102585 12.364419 -10.641318 -25.980411 2.033186 -0.887346 20.508842 -2.306280 -10.965438 -4.249105 -1.419000 0.000000 -20.139599
-11.316499 16.997445 -1.408203 177.460841 81.436865 179.142741 -11.238622 5.276697 0.549474 1.887478 7.783192 10.161319 -0.234584 2.208868 27.140525 0.592675 -4.650750 19.100981 -2.253200 -0.000000 -75.776900 9.137180 -0.902266 -0.143126 12.498329 -10.609341 -25.549524 2.016577 -0.949821 21.388925 -2.338910 -10.960762 -5.061060 -1.227299 0.000000 -17.870000
-11.144808 17.002701 -1.384046 178.190012 81.327639 179.760796 -11.327759 5.277396 0.544500 2.445716 7.993283 9.281165 -0.095886 2.278032 29.153579 0.722113 -4.913524 20.843043 -2.575200 0.000000 -73.574200 9.120276 -0.955949 -0.178436 12.631583 -10.561705 -25.062543 2.003484 -0.992739 22.132251 -2.386094 -11.006931 -5.944498 -1.025999 -0.000000 -15.800201
-10.975864 17.006959 -1.359160 178.769772 81.214152 -179.757225 -11.411388 5.259066 0.529148 2.940126 8.224987 8.302685 0.032785 2.338319 31.260385 0.864157 -4.883553 22.407743 -2.762600 -0.000001 -70.555600 9.104966 -1.003530 -0.212850 12.754799 -10.522575 -24.528399 1.993335 -1.020273 22.756021 -2.442601 -11.084534 -6.865587 -0.817200 -0.000000 -14.013600
-10.809656 17.010111 -1.333879 179.203802 81.094162 -179.410073 -11.487642 5.222032 0.503072 3.360459 8.471734 7.237166 0.150721 2.392991 33.441257 1.013959 -4.492046 23.723207 -2.754400 0.000000 -66.825900 9.092555 -1.045993 -0.247897 12.864408 -10.502203 -23.958021 1.984968 -1.035992 23.278477 -2.505384 -11.185343 -7.793719 -0.605000 0.000000 -12.548700
-10.646120 17.012284 -1.308784 179.559392 80.966435 -179.129692 -11.557529 5.167419 0.467464 3.710538 8.727729 6.087284 0.258895 2.445529 35.675811 1.167980 -3.694999 24.725976 -2.506500 -0.000001 -62.597801 9.081096 -1.085268 -0.282233 12.970205 -10.496485 -23.358998 1.977744 -1.041319 23.705269 -2.574329 -11.314818 -8.703452 -0.394400 -0.000000 -11.389499
-10.485142 17.013578 -1.284087 179.795208 80.835354 -178.963038 -11.617911 5.096834 0.422113 3.971504 8.982985 4.881978 0.358534 2.499080 37.924359 1.322638 -2.474135 25.354818 -1.997299 0.000000 -58.087000 9.073636 -1.122078 -0.319312 13.059429 -10.523837 -22.743033 1.971159 -1.040776 24.061235 -2.643449 -11.449660 -9.575106 -0.187400 0.000000 -10.560999
-10.326565 17.014411 -1.260303 179.988055 80.704319 -178.830654 -11.671101 5.012148 0.369781 4.151944 9.229245 3.625253 0.451743 2.555779 40.158901 1.476819 -0.858684 25.574436 -1.245900 -0.000000 -53.587300 9.066793 -1.158285 -0.355657 13.144612 -10.567197 -22.114343 1.964956 -1.034463 24.345564 -2.714295 -11.600546 -10.397199 0.012400 -0.000000 -9.995300
-10.170221 17.015083 -1.237459 -179.906108 80.581407 -178.779963 -11.715021 4.915737 0.311605 4.238318 9.458706 2.341779 0.539639 2.616442 42.338682 1.628823 1.084650 25.364129 -0.305900 -0.000000 -49.324200 9.063071 -1.194163 -0.392930 13.213811 -10.635406 -21.482130 1.959200 -1.025542 24.577763 -2.782272 -11.746975 -11.166808 0.204899 0.000000 -9.663500
-10.015873 17.016097 -1.215833 -179.824276 80.473175 -178.744072 -11.752236 4.809871 0.250665 4.242811 9.665740 1.034694 0.622705 2.681169 44.437856 1.777330 3.251234 24.720446 0.737500 0.000000 -45.449700 9.058738 -1.231106 -0.426357 13.278923 -10.703518 -20.845210 1.953945 -1.012942 24.749677 -2.850011 -11.901239 -11.883588 0.388800 -0.000000 -9.485300
-9.863280 17.017798 -1.195275 -179.811068 80.387864 -178.768141 -11.781281 4.697259 0.188909 4.157746 9.845829 -0.279313 0.700328 2.748521 46.422614 1.920354 5.523855 23.665296 1.787600 -0.000001 -42.055100 9.055822 -1.268820 -0.455713 13.329315 -10.771286 -20.208318 1.949504 -0.998178 24.871590 -2.914551 -12.047459 -12.554009 0.565200 -0.000001 -9.407500
-9.712205 17.020536 -1.175826 -179.823948 80.331690 -178.805251 -11.804331 4.580094 0.128901 3.997812 9.998592 -1.600894 0.770953 2.817043 48.274052 2.054746 7.772684 22.230100 2.744400 0.000000 -39.105400 9.051027 -1.308098 -0.476287 13.375818 -10.813251 -19.566358 1.946033 -0.979512 24.930680 -2.978812 -12.197141 -13.182416 0.734200 -0.000000 -9.367901
-9.562382 17.024558 -1.157191 -179.908073 80.309754 -178.899757 -11.819969 4.460921 0.073145 3.758751 10.120998 -2.920042 0.832406 2.883901 49.967110 2.177433 9.888481 20.474605 3.529699 -0.000000 -36.576600 9.046411 -1.348110 -0.487569 13.408920 -10.828283 -18.920997 1.943753 -0.957404 24.930659 -3.040655 -12.337799 -13.775724 0.897000 -0.000000 -9.324299
-9.413594 17.029931 -1.139289 179.966423 80.325098 -179.018025 -11.829834 4.341112 0.023745 3.455178 10.213554 -4.238138 0.882101 2.946811 51.489149 2.284727 11.775611 18.468191 4.088000 0.000000 -34.413600 9.039327 -1.389008 -0.486271 13.438015 -10.795387 -18.263583 1.942626 -0.929881 24.856160 -3.102630 -12.479650 -14.336004 1.053500 0.000000 -9.242000
-9.265605 17.036667 -1.121845 179.764251 80.378251 -179.194659 -11.832733 4.222503 -0.016942 3.086570 10.273318 -5.549515 0.917445 3.003066 52.826606 2.372900 13.370122 16.286438 4.397799 0.000000 -32.522700 9.031565 -1.429918 -0.473051 13.456629 -10.718384 -17.593600 1.942705 -0.896974 24.707527 -3.162758 -12.612950 -14.864428 1.203400 0.000000 -9.107800
-9.118281 17.044676 -1.104665 179.473532 80.467612 -179.441138 -11.828394 4.106122 -0.047154 2.657953 10.298104 -6.851666 0.936246 3.050604 53.972962 2.438848 14.634742 14.008593 4.466600 -0.000000 -30.826800 9.023675 -1.470169 -0.448910 13.463912 -10.599637 -16.908070 1.943903 -0.858242 24.481173 -3.220014 -12.733927 -15.358140 1.345099 -0.000000 -8.921700
-8.971494 17.053672 -1.087723 179.113132 80.590935 -179.738731 -11.817784 3.991838 -0.066063 2.181025 10.286156 -8.141370 0.937355 3.087989 54.924569 2.481178 15.560278 11.725872 4.330600 0.000000 -29.433999 9.014328 -1.509378 -0.414721 13.465401 -10.434818 -16.197207 1.945808 -0.812524 24.166078 -3.275261 -12.848809 -15.810879 1.476900 -0.000000 -8.697399
-8.825151 17.063481 -1.070882 178.653727 80.742856 179.880128 -11.799772 3.880558 -0.072922 1.656190 10.235488 -9.413865 0.920067 3.114629 55.684109 2.498154 16.155527 9.487862 4.033400 0.000001 -28.124800 9.005983 -1.546954 -0.374604 13.454117 -10.244665 -15.462478 1.948333 -0.760763 23.769386 -3.324869 -12.944800 -16.214971 1.595500 -0.000000 -8.463800
-8.679181 17.073794 -1.054175 178.093767 80.918402 179.410786 -11.774416 3.772159 -0.067586 1.089475 10.144284 -10.664379 0.884961 3.130366 56.255964 2.491000 16.452340 7.351038 3.629800 0.000000 -26.884300 8.999394 -1.582603 -0.332380 13.429164 -10.043976 -14.701644 1.951268 -0.703314 23.293035 -3.366979 -13.017764 -16.561913 1.697700 -0.000000 -8.256200
-8.533642 17.084290 -1.037724 177.465711 81.114478 178.881978 -11.743136 3.665267 -0.052032 0.494467 10.015309 -11.888238 0.833631 3.135885 56.646751 2.462465 16.493166 5.362462 3.172800 -0.000001 -25.796300 8.993096 -1.616211 -0.290748 13.396455 -9.834208 -13.905695 1.954046 -0.639918 22.732126 -3.402385 -13.075615 -16.843603 1.781300 -0.000001 -8.111301
-8.388456 17.094810 -1.021563 176.741670 81.324418 178.261178 -11.704747 3.560173 -0.025854 -0.130600 9.846038 -13.080952 0.767903 3.131595 56.866150 2.417040 16.335098 3.535019 2.703800 0.000000 -24.699400 8.990230 -1.647656 -0.255434 13.347305 -9.647569 -13.082555 1.956976 -0.572488 22.104022 -3.426497 -13.101327 -17.055469 1.843500 -0.000000 -8.063600
-8.243715 17.105075 -1.005876 175.962959 81.546872 177.585599 -11.660833 3.454962 0.007810 -0.770808 9.642649 -14.238619 0.690187 3.118738 56.925029 2.360112 16.033943 1.877745 2.253500 -0.000000 -23.628400 8.988828 -1.677056 -0.227993 13.288793 -9.480512 -12.223586 1.959486 -0.500785 21.404558 -3.441449 -13.107175 -17.194765 1.884200 -0.000000 -8.139300
-8.099426 17.114949 -0.990791 175.142921 81.779677 176.864889 -11.611699 3.348437 0.046802 -1.418932 9.409485 -15.357937 0.602774 3.098220 56.834706 2.298045 15.649494 0.381704 1.840200 -0.000000 -22.544400 8.988842 -1.704389 -0.210496 13.221598 -9.338882 -11.327329 1.961346 -0.425391 20.638723 -3.447516 -13.095523 -17.262926 1.903800 -0.000000 -8.354900
-7.955566 17.124359 -0.976329 174.273396 82.019629 176.088646 -11.556726 3.240041 0.090796 -2.072718 9.147956 -16.438037 0.508018 3.070326 56.605588 2.237873 15.241921 -0.965818 1.473400 -0.000000 -21.442699 8.991697 -1.729687 -0.204984 13.141802 -9.236635 -10.400814 1.962751 -0.347466 19.820031 -3.443455 -13.060117 -17.265827 1.903500 -0.000000 -8.712501
